<mxfile host="" modified="2021-02-05T03:06:26.062Z" agent="5.0 (Macintosh; Intel Mac OS X 10_16_0) AppleWebKit/537.36 (KHTML, like Gecko) Chrome/84.0.4147.105 Safari/537.36" etag="zYrBLZiQuo3JylSZ8S3n" version="13.7.9" type="embed"><diagram id="2Ban-J61rBEA34zF5NCk" name="Page-1"><mxGraphModel dx="1809" dy="2010" grid="1" gridSize="10" guides="1" tooltips="1" connect="1" arrows="1" fold="1" page="1" pageScale="1" pageWidth="827" pageHeight="1169" math="0" shadow="0"><root><mxCell id="0"/><mxCell id="1" parent="0"/><mxCell id="IX1s0zd9YMlIgSkFPL1V-21" value="Extends" style="endArrow=block;endSize=16;endFill=0;html=1;" parent="1" source="IX1s0zd9YMlIgSkFPL1V-70" target="IX1s0zd9YMlIgSkFPL1V-76" edge="1"><mxGeometry width="160" relative="1" as="geometry"><mxPoint x="30" y="-570" as="sourcePoint"/><mxPoint x="210" y="-480" as="targetPoint"/></mxGeometry></mxCell><mxCell id="IX1s0zd9YMlIgSkFPL1V-22" value="Extends" style="endArrow=block;endSize=16;endFill=0;html=1;" parent="1" source="IX1s0zd9YMlIgSkFPL1V-56" target="IX1s0zd9YMlIgSkFPL1V-76" edge="1"><mxGeometry width="160" relative="1" as="geometry"><mxPoint x="50" y="-150" as="sourcePoint"/><mxPoint x="31" y="-419" as="targetPoint"/></mxGeometry></mxCell><mxCell id="IX1s0zd9YMlIgSkFPL1V-24" value="Extends" style="endArrow=block;endSize=16;endFill=0;html=1;" parent="1" source="IX1s0zd9YMlIgSkFPL1V-72" target="IX1s0zd9YMlIgSkFPL1V-76" edge="1"><mxGeometry width="160" relative="1" as="geometry"><mxPoint x="-60" y="-490" as="sourcePoint"/><mxPoint x="100" y="-490" as="targetPoint"/></mxGeometry></mxCell><mxCell id="IX1s0zd9YMlIgSkFPL1V-25" value="Extends" style="endArrow=block;endSize=16;endFill=0;html=1;exitX=1.006;exitY=0.122;exitDx=0;exitDy=0;exitPerimeter=0;" parent="1" source="IX1s0zd9YMlIgSkFPL1V-69" target="IX1s0zd9YMlIgSkFPL1V-76" edge="1"><mxGeometry width="160" relative="1" as="geometry"><mxPoint x="-120" y="-420" as="sourcePoint"/><mxPoint x="40" y="-420" as="targetPoint"/><Array as="points"><mxPoint x="200" y="140"/><mxPoint x="200" y="-200"/><mxPoint x="80" y="-200"/></Array></mxGeometry></mxCell><mxCell id="IX1s0zd9YMlIgSkFPL1V-26" value="Extends" style="endArrow=block;endSize=16;endFill=0;html=1;" parent="1" source="IX1s0zd9YMlIgSkFPL1V-58" target="IX1s0zd9YMlIgSkFPL1V-76" edge="1"><mxGeometry width="160" relative="1" as="geometry"><mxPoint x="-120" y="-420" as="sourcePoint"/><mxPoint x="40" y="-420" as="targetPoint"/></mxGeometry></mxCell><mxCell id="IX1s0zd9YMlIgSkFPL1V-56" value="Diretor" style="swimlane;childLayout=stackLayout;horizontal=1;startSize=30;horizontalStack=0;rounded=1;fontSize=14;fontStyle=0;strokeWidth=2;resizeParent=0;resizeLast=1;shadow=0;dashed=0;align=center;" parent="1" vertex="1"><mxGeometry x="-20" y="-1040" width="160" height="140" as="geometry"/></mxCell><mxCell id="IX1s0zd9YMlIgSkFPL1V-57" value="+ string:nome&#10;+ string:email&#10;+ double:telemovel&#10;+ string:username&#10;+ string:password&#10;+ date:dataPubliPropostas&#10;+ int:maxPrefs" style="align=left;strokeColor=none;fillColor=none;spacingLeft=4;fontSize=12;verticalAlign=top;resizable=0;rotatable=0;part=1;" parent="IX1s0zd9YMlIgSkFPL1V-56" vertex="1"><mxGeometry y="30" width="160" height="110" as="geometry"/></mxCell><mxCell id="IX1s0zd9YMlIgSkFPL1V-58" value="Estagiario" style="swimlane;childLayout=stackLayout;horizontal=1;startSize=30;horizontalStack=0;rounded=1;fontSize=14;fontStyle=0;strokeWidth=2;resizeParent=0;resizeLast=1;shadow=0;dashed=0;align=center;" parent="1" vertex="1"><mxGeometry x="-390" y="-630" width="160" height="110" as="geometry"/></mxCell><mxCell id="IX1s0zd9YMlIgSkFPL1V-59" value="+ string:nome&#10;+ string:username&#10;+ string:password&#10;+ string:email&#10;+ double:telemovel" style="align=left;strokeColor=none;fillColor=none;spacingLeft=4;fontSize=12;verticalAlign=top;resizable=0;rotatable=0;part=1;" parent="IX1s0zd9YMlIgSkFPL1V-58" vertex="1"><mxGeometry y="30" width="160" height="80" as="geometry"/></mxCell><mxCell id="IX1s0zd9YMlIgSkFPL1V-60" value="Preferencia" style="swimlane;childLayout=stackLayout;horizontal=1;startSize=30;horizontalStack=0;rounded=1;fontSize=14;fontStyle=0;strokeWidth=2;resizeParent=0;resizeLast=1;shadow=0;dashed=0;align=center;" parent="1" vertex="1"><mxGeometry x="-690" y="-605" width="160" height="60" as="geometry"/></mxCell><mxCell id="IX1s0zd9YMlIgSkFPL1V-61" value="+ int:prioridade" style="align=left;strokeColor=none;fillColor=none;spacingLeft=4;fontSize=12;verticalAlign=top;resizable=0;rotatable=0;part=1;" parent="IX1s0zd9YMlIgSkFPL1V-60" vertex="1"><mxGeometry y="30" width="160" height="30" as="geometry"/></mxCell><mxCell id="IX1s0zd9YMlIgSkFPL1V-62" value="Objetivo" style="swimlane;childLayout=stackLayout;horizontal=1;startSize=30;horizontalStack=0;rounded=1;fontSize=14;fontStyle=0;strokeWidth=2;resizeParent=0;resizeLast=1;shadow=0;dashed=0;align=center;" parent="1" vertex="1"><mxGeometry x="-720" y="-350" width="160" height="60" as="geometry"/></mxCell><mxCell id="IX1s0zd9YMlIgSkFPL1V-63" value="+ string:Descricao" style="align=left;strokeColor=none;fillColor=none;spacingLeft=4;fontSize=12;verticalAlign=top;resizable=0;rotatable=0;part=1;" parent="IX1s0zd9YMlIgSkFPL1V-62" vertex="1"><mxGeometry y="30" width="160" height="30" as="geometry"/></mxCell><mxCell id="IX1s0zd9YMlIgSkFPL1V-64" value="Projeto" style="swimlane;childLayout=stackLayout;horizontal=1;startSize=30;horizontalStack=0;rounded=1;fontSize=14;fontStyle=0;strokeWidth=2;resizeParent=0;resizeLast=1;shadow=0;dashed=0;align=center;" parent="1" vertex="1"><mxGeometry x="-385" y="-263" width="160" height="110" as="geometry"/></mxCell><mxCell id="IX1s0zd9YMlIgSkFPL1V-65" value="+ string:titulo&#10;+ string:descricao&#10;+ array&lt;Objetivo&gt;:objetivos&#10;+ string:perfilProfissional&#10;+ bool:aprovado" style="align=left;strokeColor=none;fillColor=none;spacingLeft=4;fontSize=12;verticalAlign=top;resizable=0;rotatable=0;part=1;" parent="IX1s0zd9YMlIgSkFPL1V-64" vertex="1"><mxGeometry y="30" width="160" height="80" as="geometry"/></mxCell><mxCell id="IX1s0zd9YMlIgSkFPL1V-66" value="Cronograma" style="swimlane;childLayout=stackLayout;horizontal=1;startSize=30;horizontalStack=0;rounded=1;fontSize=14;fontStyle=0;strokeWidth=2;resizeParent=0;resizeLast=1;shadow=0;dashed=0;align=center;" parent="1" vertex="1"><mxGeometry x="-720" y="-100" width="160" height="70" as="geometry"/></mxCell><mxCell id="IX1s0zd9YMlIgSkFPL1V-67" value="+ string:descrição&#10;+ string:duracao" style="align=left;strokeColor=none;fillColor=none;spacingLeft=4;fontSize=12;verticalAlign=top;resizable=0;rotatable=0;part=1;" parent="IX1s0zd9YMlIgSkFPL1V-66" vertex="1"><mxGeometry y="30" width="160" height="40" as="geometry"/></mxCell><mxCell id="IX1s0zd9YMlIgSkFPL1V-68" value="Entidade" style="swimlane;childLayout=stackLayout;horizontal=1;startSize=30;horizontalStack=0;rounded=1;fontSize=14;fontStyle=0;strokeWidth=2;resizeParent=0;resizeLast=1;shadow=0;dashed=0;align=center;" parent="1" vertex="1"><mxGeometry x="-385" y="100" width="160" height="120" as="geometry"/></mxCell><mxCell id="IX1s0zd9YMlIgSkFPL1V-69" value="+ string:nome&#10;+ string:abreviatura&#10;+ string:descricao" style="align=left;strokeColor=none;fillColor=none;spacingLeft=4;fontSize=12;verticalAlign=top;resizable=0;rotatable=0;part=1;" parent="IX1s0zd9YMlIgSkFPL1V-68" vertex="1"><mxGeometry y="30" width="160" height="90" as="geometry"/></mxCell><mxCell id="IX1s0zd9YMlIgSkFPL1V-72" value="Supervisor" style="swimlane;childLayout=stackLayout;horizontal=1;startSize=30;horizontalStack=0;rounded=1;fontSize=14;fontStyle=0;strokeWidth=2;resizeParent=0;resizeLast=1;shadow=0;dashed=0;align=center;" parent="1" vertex="1"><mxGeometry x="170" y="-352" width="160" height="120" as="geometry"/></mxCell><mxCell id="IX1s0zd9YMlIgSkFPL1V-73" value="+ string:nome&#10;+ string:username&#10;+ string:password&#10;+ string:email&#10;+ double:telemovel" style="align=left;strokeColor=none;fillColor=none;spacingLeft=4;fontSize=12;verticalAlign=top;resizable=0;rotatable=0;part=1;" parent="IX1s0zd9YMlIgSkFPL1V-72" vertex="1"><mxGeometry y="30" width="160" height="90" as="geometry"/></mxCell><mxCell id="IX1s0zd9YMlIgSkFPL1V-74" value="Notificação" style="swimlane;childLayout=stackLayout;horizontal=1;startSize=30;horizontalStack=0;rounded=1;fontSize=14;fontStyle=0;strokeWidth=2;resizeParent=0;resizeLast=1;shadow=0;dashed=0;align=center;" parent="1" vertex="1"><mxGeometry x="240" y="-620" width="160" height="90" as="geometry"/></mxCell><mxCell id="IX1s0zd9YMlIgSkFPL1V-75" value="+ Utilizador:enviadoPor&#10;+ string:mensagem&#10;+ date:date" style="align=left;strokeColor=none;fillColor=none;spacingLeft=4;fontSize=12;verticalAlign=top;resizable=0;rotatable=0;part=1;" parent="IX1s0zd9YMlIgSkFPL1V-74" vertex="1"><mxGeometry y="30" width="160" height="60" as="geometry"/></mxCell><mxCell id="IX1s0zd9YMlIgSkFPL1V-76" value="Utilizador" style="swimlane;childLayout=stackLayout;horizontal=1;startSize=30;horizontalStack=0;rounded=1;fontSize=14;fontStyle=0;strokeWidth=2;resizeParent=0;resizeLast=1;shadow=0;dashed=0;align=center;" parent="1" vertex="1"><mxGeometry x="-20" y="-660" width="160" height="170" as="geometry"/></mxCell><mxCell id="IX1s0zd9YMlIgSkFPL1V-77" value="+ string:nome&#10;+ string:email&#10;+ double:telemovel&#10;+ string:abreviatura&#10;+ string:descrição &#10;+ string: username&#10;+ string: password&#10;+ date: dataPubliPropostas&#10;+ int: maxPrefs" style="align=left;strokeColor=none;fillColor=none;spacingLeft=4;fontSize=12;verticalAlign=top;resizable=0;rotatable=0;part=1;" parent="IX1s0zd9YMlIgSkFPL1V-76" vertex="1"><mxGeometry y="30" width="160" height="140" as="geometry"/></mxCell><mxCell id="IX1s0zd9YMlIgSkFPL1V-70" value="Orientador" style="swimlane;childLayout=stackLayout;horizontal=1;startSize=30;horizontalStack=0;rounded=1;fontSize=14;fontStyle=0;strokeWidth=2;resizeParent=0;resizeLast=1;shadow=0;dashed=0;align=center;" parent="1" vertex="1"><mxGeometry x="-150" y="-253" width="160" height="90" as="geometry"/></mxCell><mxCell id="IX1s0zd9YMlIgSkFPL1V-71" value="+ string:nome&#10;+ string:email&#10;+ double:telemovel" style="align=left;strokeColor=none;fillColor=none;spacingLeft=4;fontSize=12;verticalAlign=top;resizable=0;rotatable=0;part=1;" parent="IX1s0zd9YMlIgSkFPL1V-70" vertex="1"><mxGeometry y="30" width="160" height="60" as="geometry"/></mxCell><mxCell id="IX1s0zd9YMlIgSkFPL1V-78" value="" style="endArrow=none;html=1;rounded=0;" parent="1" source="IX1s0zd9YMlIgSkFPL1V-72" target="IX1s0zd9YMlIgSkFPL1V-56" edge="1"><mxGeometry relative="1" as="geometry"><mxPoint x="330" y="-291" as="sourcePoint"/><mxPoint x="280" y="-740" as="targetPoint"/><Array as="points"><mxPoint x="450" y="-291"/><mxPoint x="450" y="-970"/></Array></mxGeometry></mxCell><mxCell id="IX1s0zd9YMlIgSkFPL1V-80" value="" style="endArrow=none;html=1;rounded=0;" parent="1" source="IX1s0zd9YMlIgSkFPL1V-60" target="IX1s0zd9YMlIgSkFPL1V-58" edge="1"><mxGeometry relative="1" as="geometry"><mxPoint x="-320" y="-420" as="sourcePoint"/><mxPoint x="-160" y="-420" as="targetPoint"/></mxGeometry></mxCell><mxCell id="IX1s0zd9YMlIgSkFPL1V-81" value="1" style="edgeLabel;html=1;align=center;verticalAlign=middle;resizable=0;points=[];" parent="IX1s0zd9YMlIgSkFPL1V-80" vertex="1" connectable="0"><mxGeometry x="-0.795" y="4" relative="1" as="geometry"><mxPoint x="116" y="-5" as="offset"/></mxGeometry></mxCell><mxCell id="IX1s0zd9YMlIgSkFPL1V-83" value="1..*" style="text;html=1;align=center;verticalAlign=middle;resizable=0;points=[];autosize=1;" parent="1" vertex="1"><mxGeometry x="-535" y="-594" width="30" height="20" as="geometry"/></mxCell><mxCell id="IX1s0zd9YMlIgSkFPL1V-88" value="0..*" style="text;html=1;align=center;verticalAlign=middle;resizable=0;points=[];autosize=1;" parent="1" vertex="1"><mxGeometry x="-285" y="-650" width="30" height="20" as="geometry"/></mxCell><mxCell id="IX1s0zd9YMlIgSkFPL1V-90" value="1" style="text;html=1;align=center;verticalAlign=middle;resizable=0;points=[];autosize=1;" parent="1" vertex="1"><mxGeometry x="-40" y="-900" width="20" height="20" as="geometry"/></mxCell><mxCell id="IX1s0zd9YMlIgSkFPL1V-92" value="1" style="text;html=1;align=center;verticalAlign=middle;resizable=0;points=[];autosize=1;" parent="1" vertex="1"><mxGeometry x="-385" y="-290" width="20" height="20" as="geometry"/></mxCell><mxCell id="IX1s0zd9YMlIgSkFPL1V-93" value="0..*" style="text;html=1;align=center;verticalAlign=middle;resizable=0;points=[];autosize=1;" parent="1" vertex="1"><mxGeometry x="-555" y="-340" width="30" height="20" as="geometry"/></mxCell><mxCell id="IX1s0zd9YMlIgSkFPL1V-95" value="" style="endArrow=none;html=1;rounded=0;entryX=0.156;entryY=0;entryDx=0;entryDy=0;entryPerimeter=0;" parent="1" source="IX1s0zd9YMlIgSkFPL1V-62" target="IX1s0zd9YMlIgSkFPL1V-64" edge="1"><mxGeometry relative="1" as="geometry"><mxPoint x="-320" y="-60" as="sourcePoint"/><mxPoint x="-360" y="-281" as="targetPoint"/><Array as="points"><mxPoint x="-360" y="-320"/></Array></mxGeometry></mxCell><mxCell id="IX1s0zd9YMlIgSkFPL1V-96" value="" style="endArrow=none;html=1;rounded=0;entryX=0.156;entryY=1;entryDx=0;entryDy=0;entryPerimeter=0;" parent="1" source="IX1s0zd9YMlIgSkFPL1V-66" target="IX1s0zd9YMlIgSkFPL1V-65" edge="1"><mxGeometry relative="1" as="geometry"><mxPoint x="-320" y="-200" as="sourcePoint"/><mxPoint x="-360" y="-136" as="targetPoint"/><Array as="points"><mxPoint x="-360" y="-65"/></Array></mxGeometry></mxCell><mxCell id="IX1s0zd9YMlIgSkFPL1V-97" value="1" style="text;html=1;align=center;verticalAlign=middle;resizable=0;points=[];autosize=1;" parent="1" vertex="1"><mxGeometry x="-550" y="-90" width="20" height="20" as="geometry"/></mxCell><mxCell id="IX1s0zd9YMlIgSkFPL1V-98" value="1" style="text;html=1;align=center;verticalAlign=middle;resizable=0;points=[];autosize=1;" parent="1" vertex="1"><mxGeometry x="-385" y="-150" width="20" height="20" as="geometry"/></mxCell><mxCell id="IX1s0zd9YMlIgSkFPL1V-99" value="" style="endArrow=none;html=1;rounded=0;" parent="1" source="IX1s0zd9YMlIgSkFPL1V-70" target="IX1s0zd9YMlIgSkFPL1V-58" edge="1"><mxGeometry relative="1" as="geometry"><mxPoint x="-98.77384196185267" y="-252" as="sourcePoint"/><mxPoint x="-160" y="-420" as="targetPoint"/></mxGeometry></mxCell><mxCell id="IX1s0zd9YMlIgSkFPL1V-100" value="0..1" style="text;html=1;align=center;verticalAlign=middle;resizable=0;points=[];autosize=1;" parent="1" vertex="1"><mxGeometry x="-110" y="-273" width="40" height="20" as="geometry"/></mxCell><mxCell id="IX1s0zd9YMlIgSkFPL1V-101" value="0..*" style="text;html=1;align=center;verticalAlign=middle;resizable=0;points=[];autosize=1;" parent="1" vertex="1"><mxGeometry x="-260" y="-520" width="30" height="20" as="geometry"/></mxCell><mxCell id="IX1s0zd9YMlIgSkFPL1V-102" value="0..*" style="text;html=1;align=center;verticalAlign=middle;resizable=0;points=[];autosize=1;" parent="1" vertex="1"><mxGeometry x="150" y="-594" width="30" height="20" as="geometry"/></mxCell><mxCell id="IX1s0zd9YMlIgSkFPL1V-103" value="1" style="text;html=1;align=center;verticalAlign=middle;resizable=0;points=[];autosize=1;" parent="1" vertex="1"><mxGeometry x="220" y="-594" width="20" height="20" as="geometry"/></mxCell><mxCell id="IX1s0zd9YMlIgSkFPL1V-104" value="" style="endArrow=none;html=1;rounded=0;" parent="1" source="IX1s0zd9YMlIgSkFPL1V-76" target="IX1s0zd9YMlIgSkFPL1V-74" edge="1"><mxGeometry relative="1" as="geometry"><mxPoint x="-320" y="-420" as="sourcePoint"/><mxPoint x="-160" y="-420" as="targetPoint"/></mxGeometry></mxCell><mxCell id="IX1s0zd9YMlIgSkFPL1V-105" value="1" style="text;html=1;align=center;verticalAlign=middle;resizable=0;points=[];autosize=1;" parent="1" vertex="1"><mxGeometry x="145" y="-990" width="20" height="20" as="geometry"/></mxCell><mxCell id="IX1s0zd9YMlIgSkFPL1V-106" value="0..*" style="text;html=1;align=center;verticalAlign=middle;resizable=0;points=[];autosize=1;" parent="1" vertex="1"><mxGeometry x="335" y="-310" width="30" height="20" as="geometry"/></mxCell><mxCell id="IX1s0zd9YMlIgSkFPL1V-107" value="1" style="text;html=1;align=center;verticalAlign=middle;resizable=0;points=[];autosize=1;" parent="1" vertex="1"><mxGeometry x="-45" y="-990" width="20" height="20" as="geometry"/></mxCell><mxCell id="IX1s0zd9YMlIgSkFPL1V-108" value="0..*" style="text;html=1;align=center;verticalAlign=middle;resizable=0;points=[];autosize=1;" parent="1" vertex="1"><mxGeometry x="-415" y="150" width="30" height="20" as="geometry"/></mxCell><mxCell id="IX1s0zd9YMlIgSkFPL1V-109" value="" style="endArrow=none;html=1;rounded=0;exitX=0;exitY=0.433;exitDx=0;exitDy=0;exitPerimeter=0;" parent="1" source="IX1s0zd9YMlIgSkFPL1V-69" target="IX1s0zd9YMlIgSkFPL1V-56" edge="1"><mxGeometry relative="1" as="geometry"><mxPoint x="-405" y="168" as="sourcePoint"/><mxPoint x="-200" y="-905" as="targetPoint"/><Array as="points"><mxPoint x="-760" y="168"/><mxPoint x="-760" y="-970"/></Array></mxGeometry></mxCell><mxCell id="IX1s0zd9YMlIgSkFPL1V-110" value="0..1" style="text;html=1;align=center;verticalAlign=middle;resizable=0;points=[];autosize=1;" parent="1" vertex="1"><mxGeometry x="-310" y="-520" width="40" height="20" as="geometry"/></mxCell><mxCell id="IX1s0zd9YMlIgSkFPL1V-111" value="1" style="text;html=1;align=center;verticalAlign=middle;resizable=0;points=[];autosize=1;" parent="1" vertex="1"><mxGeometry x="-300" y="-283" width="20" height="20" as="geometry"/></mxCell><mxCell id="IX1s0zd9YMlIgSkFPL1V-112" value="1..*" style="text;html=1;align=center;verticalAlign=middle;resizable=0;points=[];autosize=1;" parent="1" vertex="1"><mxGeometry x="-305" y="-153" width="30" height="20" as="geometry"/></mxCell><mxCell id="IX1s0zd9YMlIgSkFPL1V-113" value="1" style="text;html=1;align=center;verticalAlign=middle;resizable=0;points=[];autosize=1;" parent="1" vertex="1"><mxGeometry x="-305" y="80" width="20" height="20" as="geometry"/></mxCell><mxCell id="IX1s0zd9YMlIgSkFPL1V-114" value="" style="endArrow=none;html=1;rounded=0;" parent="1" source="IX1s0zd9YMlIgSkFPL1V-64" target="IX1s0zd9YMlIgSkFPL1V-58" edge="1"><mxGeometry relative="1" as="geometry"><mxPoint x="-320" y="-260" as="sourcePoint"/><mxPoint x="-305" y="-472" as="targetPoint"/></mxGeometry></mxCell><mxCell id="IX1s0zd9YMlIgSkFPL1V-115" value="" style="endArrow=none;html=1;rounded=0;" parent="1" source="IX1s0zd9YMlIgSkFPL1V-64" target="IX1s0zd9YMlIgSkFPL1V-68" edge="1"><mxGeometry relative="1" as="geometry"><mxPoint x="-320" y="-210" as="sourcePoint"/><mxPoint x="-305" y="70" as="targetPoint"/></mxGeometry></mxCell><mxCell id="IX1s0zd9YMlIgSkFPL1V-116" value="" style="endArrow=none;html=1;rounded=0;" parent="1" source="IX1s0zd9YMlIgSkFPL1V-58" target="IX1s0zd9YMlIgSkFPL1V-56" edge="1"><mxGeometry relative="1" as="geometry"><mxPoint x="-225" y="-676.063492063492" as="sourcePoint"/><mxPoint x="-160" y="-830" as="targetPoint"/></mxGeometry></mxCell><mxCell id="IX1s0zd9YMlIgSkFPL1V-117" value="0..1" style="text;html=1;align=center;verticalAlign=middle;resizable=0;points=[];autosize=1;" parent="1" vertex="1"><mxGeometry x="-420" y="-560" width="40" height="20" as="geometry"/></mxCell><mxCell id="IX1s0zd9YMlIgSkFPL1V-118" value="0..1" style="text;html=1;align=center;verticalAlign=middle;resizable=0;points=[];autosize=1;" parent="1" vertex="1"><mxGeometry x="-420" y="110" width="40" height="20" as="geometry"/></mxCell><mxCell id="IX1s0zd9YMlIgSkFPL1V-119" value="" style="endArrow=none;html=1;rounded=0;exitX=0;exitY=0.75;exitDx=0;exitDy=0;entryX=0;entryY=0;entryDx=0;entryDy=0;" parent="1" source="IX1s0zd9YMlIgSkFPL1V-59" target="IX1s0zd9YMlIgSkFPL1V-69" edge="1"><mxGeometry relative="1" as="geometry"><mxPoint x="-320" y="-420" as="sourcePoint"/><mxPoint x="-405" y="123" as="targetPoint"/><Array as="points"><mxPoint x="-740" y="-540"/><mxPoint x="-740" y="130"/></Array></mxGeometry></mxCell><mxCell id="IX1s0zd9YMlIgSkFPL1V-120" value="0..1" style="text;html=1;align=center;verticalAlign=middle;resizable=0;points=[];autosize=1;" parent="1" vertex="1"><mxGeometry x="-110" y="-163" width="40" height="20" as="geometry"/></mxCell><mxCell id="IX1s0zd9YMlIgSkFPL1V-121" value="0..1" style="text;html=1;align=center;verticalAlign=middle;resizable=0;points=[];autosize=1;" parent="1" vertex="1"><mxGeometry x="-230" y="100" width="40" height="20" as="geometry"/></mxCell><mxCell id="IX1s0zd9YMlIgSkFPL1V-126" value="" style="endArrow=none;html=1;rounded=0;entryX=0.994;entryY=0.167;entryDx=0;entryDy=0;entryPerimeter=0;" parent="1" source="IX1s0zd9YMlIgSkFPL1V-70" target="IX1s0zd9YMlIgSkFPL1V-68" edge="1"><mxGeometry relative="1" as="geometry"><mxPoint x="-70" y="-164" as="sourcePoint"/><mxPoint x="-160" y="-50" as="targetPoint"/><Array as="points"><mxPoint x="-70" y="120"/></Array></mxGeometry></mxCell><mxCell id="IX1s0zd9YMlIgSkFPL1V-127" value="1" style="text;html=1;align=center;verticalAlign=middle;resizable=0;points=[];autosize=1;" parent="1" vertex="1"><mxGeometry x="-225" y="160" width="20" height="20" as="geometry"/></mxCell><mxCell id="IX1s0zd9YMlIgSkFPL1V-128" value="1" style="text;html=1;align=center;verticalAlign=middle;resizable=0;points=[];autosize=1;" parent="1" vertex="1"><mxGeometry x="250" y="-232" width="20" height="20" as="geometry"/></mxCell><mxCell id="IX1s0zd9YMlIgSkFPL1V-129" value="" style="endArrow=none;html=1;rounded=0;" parent="1" source="IX1s0zd9YMlIgSkFPL1V-72" target="IX1s0zd9YMlIgSkFPL1V-68" edge="1"><mxGeometry relative="1" as="geometry"><mxPoint x="250" y="-232" as="sourcePoint"/><mxPoint x="-160" y="30" as="targetPoint"/><Array as="points"><mxPoint x="250" y="160"/></Array></mxGeometry></mxCell></root></mxGraphModel></diagram></mxfile>